<svg xmlns="http://www.w3.org/2000/svg" viewBox="0 0 24 24"><g clip-path="url(#a)"><path fill="#FFB800" d="M12 24c6.627 0 12-5.373 12-12S18.627 0 12 0 0 5.373 0 12s5.373 12 12 12Z"/><path fill="#191E3B" d="m15.644 15.568.96-.931 2.742-2.74a.617.617 0 0 0 .15-.48l-1.017-5.585a.454.454 0 0 0-.334-.33l-5.556-.997a.623.623 0 0 0-.484.15l-8.272 8.272a.295.295 0 0 0 0 .403l6.838 6.838c.109.109.29.11.403 0l3.33-3.33c.675.67 1.728.847 2.586.435a2.296 2.296 0 0 0 1.278-2.29c-.007-.224-.026-.803-.212-1.188l-.918.867c.035.15.063.276.066.32a1.23 1.23 0 0 1-1.13 1.299 1.23 1.23 0 0 1-1.298-1.13c-.028-.395.148-1.838.394-3.198.115-.66.276-1.28.455-1.925.538-.21.883-.802.8-1.374a1.306 1.306 0 0 0-1.16-1.088 1.306 1.306 0 0 0-1.32.885c-.175.55.068 1.19.565 1.486a36.637 36.637 0 0 0-.565 3.095c-.113.78-.27 1.61-.21 2.402l-.653.653-5.168-5.166 4.76-4.757a.308.308 0 0 1 .24-.076L17 6.825a.225.225 0 0 1 .167.166l.768 4.074a.306.306 0 0 1-.076.241l-2.44 2.443c-.157.586-.341 1.612.226 1.817v.002Zm-4.92 2.672-4.947-4.973a.15.15 0 0 1-.003-.203l1.354-1.352 5.167 5.165-1.367 1.367a.148.148 0 0 1-.203-.004Z"/></g><defs><clipPath id="a"><path fill="#fff" d="M0 0h24v24H0z"/></clipPath></defs></svg>